# xmcd
#
# Track frame offsets: 
#        150
#        3202
#        25392
#        45843
#        66807
#        88234
#        105255
#        127419
#        146848
#        167775
#        190566
#
# Disc length: 2765 seconds
#
# Revision: 4
# Processed by: cddbd v1.5PL3 Copyright (c) Steve Scherf et al.
# Submitted via: ExactAudioCopy v0.90b4
#
DISCID=8d0acb0b
DTITLE=JET LAG - FIRST
DYEAR=2002
DGENRE=
TTITLE0=introduction
TTITLE1=Acceleration
TTITLE2=Dusk
TTITLE3=Find a way (album version)
TTITLE4=Squall is calling
TTITLE5=Like a child
TTITLE6=Floater (album version)
TTITLE7=Your reminiscence
TTITLE8=Up, up to the sky
TTITLE9=Life
TTITLE10=The sun rises and sets again
EXTD=
EXTT0=
EXTT1=
EXTT2=
EXTT3=
EXTT4=
EXTT5=
EXTT6=
EXTT7=
EXTT8=
EXTT9=
EXTT10=
PLAYORDER=
